<mxfile host="app.diagrams.net" modified="2023-10-28T09:00:46.672Z" agent="Mozilla/5.0 (Windows NT 10.0; Win64; x64) AppleWebKit/537.36 (KHTML, like Gecko) Chrome/118.0.0.0 Safari/537.36" etag="rtXwmNI9D405mh9NPIiH" version="22.0.8" type="google">
  <diagram name="第 1 页" id="wOqsTcKBiwLh7oOWGafg">
    <mxGraphModel dx="1048" dy="1007" grid="0" gridSize="10" guides="1" tooltips="1" connect="1" arrows="1" fold="1" page="0" pageScale="1" pageWidth="827" pageHeight="1169" background="#FFFFFF" math="0" shadow="0">
      <root>
        <mxCell id="0" />
        <mxCell id="1" parent="0" />
        <mxCell id="vAD4Pwc3ynfNv6WFpabd-41" value="" style="shape=table;startSize=0;container=1;collapsible=0;childLayout=tableLayout;fontSize=16;fillColor=#fff2cc;strokeColor=#FF0000;opacity=30;" vertex="1" parent="1">
          <mxGeometry x="310" y="-182" width="165" height="123.4000244140625" as="geometry" />
        </mxCell>
        <mxCell id="vAD4Pwc3ynfNv6WFpabd-42" value="" style="shape=tableRow;horizontal=0;startSize=0;swimlaneHead=0;swimlaneBody=0;strokeColor=#FF0000;top=0;left=0;bottom=0;right=0;collapsible=0;dropTarget=0;fillColor=#fff2cc;points=[[0,0.5],[1,0.5]];portConstraint=eastwest;fontSize=16;opacity=30;" vertex="1" parent="vAD4Pwc3ynfNv6WFpabd-41">
          <mxGeometry width="165" height="33" as="geometry" />
        </mxCell>
        <mxCell id="vAD4Pwc3ynfNv6WFpabd-43" value="Computer" style="shape=partialRectangle;html=1;whiteSpace=wrap;connectable=0;strokeColor=#FF0000;overflow=hidden;fillColor=#fff2cc;top=0;left=0;bottom=0;right=0;pointerEvents=1;fontSize=16;opacity=30;" vertex="1" parent="vAD4Pwc3ynfNv6WFpabd-42">
          <mxGeometry width="165" height="33" as="geometry">
            <mxRectangle width="165" height="33" as="alternateBounds" />
          </mxGeometry>
        </mxCell>
        <mxCell id="vAD4Pwc3ynfNv6WFpabd-44" value="" style="shape=tableRow;horizontal=0;startSize=0;swimlaneHead=0;swimlaneBody=0;strokeColor=#FF0000;top=0;left=0;bottom=0;right=0;collapsible=0;dropTarget=0;fillColor=#fff2cc;points=[[0,0.5],[1,0.5]];portConstraint=eastwest;fontSize=16;opacity=30;" vertex="1" parent="vAD4Pwc3ynfNv6WFpabd-41">
          <mxGeometry y="33" width="165" height="58" as="geometry" />
        </mxCell>
        <mxCell id="vAD4Pwc3ynfNv6WFpabd-45" value="&lt;div style=&quot;direction: ltr;&quot;&gt;&lt;span style=&quot;background-color: initial;&quot;&gt;cpu:string&lt;/span&gt;&lt;/div&gt;&lt;div style=&quot;direction: ltr;&quot;&gt;&lt;span style=&quot;background-color: initial;&quot;&gt;memory:string&lt;/span&gt;&lt;/div&gt;" style="shape=partialRectangle;html=1;whiteSpace=wrap;connectable=0;strokeColor=#FF0000;overflow=hidden;fillColor=#fff2cc;top=0;left=0;bottom=0;right=0;pointerEvents=1;fontSize=16;opacity=30;" vertex="1" parent="vAD4Pwc3ynfNv6WFpabd-44">
          <mxGeometry width="165" height="58" as="geometry">
            <mxRectangle width="165" height="58" as="alternateBounds" />
          </mxGeometry>
        </mxCell>
        <mxCell id="vAD4Pwc3ynfNv6WFpabd-46" value="" style="shape=tableRow;horizontal=0;startSize=0;swimlaneHead=0;swimlaneBody=0;strokeColor=#FF0000;top=0;left=0;bottom=0;right=0;collapsible=0;dropTarget=0;fillColor=#fff2cc;points=[[0,0.5],[1,0.5]];portConstraint=eastwest;fontSize=16;opacity=30;" vertex="1" parent="vAD4Pwc3ynfNv6WFpabd-41">
          <mxGeometry y="91" width="165" height="32" as="geometry" />
        </mxCell>
        <mxCell id="vAD4Pwc3ynfNv6WFpabd-47" value="run()" style="shape=partialRectangle;html=1;whiteSpace=wrap;connectable=0;strokeColor=#FF0000;overflow=hidden;fillColor=#fff2cc;top=0;left=0;bottom=0;right=0;pointerEvents=1;fontSize=16;opacity=30;" vertex="1" parent="vAD4Pwc3ynfNv6WFpabd-46">
          <mxGeometry width="165" height="32" as="geometry">
            <mxRectangle width="165" height="32" as="alternateBounds" />
          </mxGeometry>
        </mxCell>
        <mxCell id="vAD4Pwc3ynfNv6WFpabd-49" value="" style="endArrow=none;html=1;rounded=0;fontSize=12;startSize=8;endSize=8;curved=1;entryX=0;entryY=0.5;entryDx=0;entryDy=0;exitX=1;exitY=0.5;exitDx=0;exitDy=0;fillColor=#fff2cc;strokeColor=#FF0000;" edge="1" parent="1" source="vAD4Pwc3ynfNv6WFpabd-37" target="vAD4Pwc3ynfNv6WFpabd-44">
          <mxGeometry width="50" height="50" relative="1" as="geometry">
            <mxPoint x="262" y="-25.30000000000001" as="sourcePoint" />
            <mxPoint x="312" y="-75.30000000000001" as="targetPoint" />
          </mxGeometry>
        </mxCell>
        <mxCell id="vAD4Pwc3ynfNv6WFpabd-34" value="" style="shape=table;startSize=0;container=1;collapsible=0;childLayout=tableLayout;fontSize=16;fillColor=#fff2cc;strokeColor=#FF0000;opacity=30;swimlaneLine=1;" vertex="1" parent="1">
          <mxGeometry x="80" y="-163" width="129" height="94.85003662109352" as="geometry" />
        </mxCell>
        <mxCell id="vAD4Pwc3ynfNv6WFpabd-35" value="" style="shape=tableRow;horizontal=0;startSize=0;swimlaneHead=0;swimlaneBody=0;strokeColor=#FF0000;top=0;left=0;bottom=0;right=0;collapsible=0;dropTarget=0;fillColor=#fff2cc;points=[[0,0.5],[1,0.5]];portConstraint=eastwest;fontSize=16;opacity=30;swimlaneLine=1;" vertex="1" parent="vAD4Pwc3ynfNv6WFpabd-34">
          <mxGeometry width="129" height="24" as="geometry" />
        </mxCell>
        <mxCell id="vAD4Pwc3ynfNv6WFpabd-36" value="Person" style="shape=partialRectangle;html=1;whiteSpace=wrap;connectable=0;strokeColor=#FF0000;overflow=hidden;fillColor=#fff2cc;top=0;left=0;bottom=0;right=0;pointerEvents=1;fontSize=16;opacity=30;swimlaneLine=1;" vertex="1" parent="vAD4Pwc3ynfNv6WFpabd-35">
          <mxGeometry width="129" height="24" as="geometry">
            <mxRectangle width="129" height="24" as="alternateBounds" />
          </mxGeometry>
        </mxCell>
        <mxCell id="vAD4Pwc3ynfNv6WFpabd-37" value="" style="shape=tableRow;horizontal=0;startSize=0;swimlaneHead=0;swimlaneBody=0;strokeColor=#FF0000;top=0;left=0;bottom=0;right=0;collapsible=0;dropTarget=0;fillColor=#fff2cc;points=[[0,0.5],[1,0.5]];portConstraint=eastwest;fontSize=16;opacity=30;swimlaneLine=1;" vertex="1" parent="vAD4Pwc3ynfNv6WFpabd-34">
          <mxGeometry y="24" width="129" height="36" as="geometry" />
        </mxCell>
        <mxCell id="vAD4Pwc3ynfNv6WFpabd-38" value="name:string" style="shape=partialRectangle;html=1;whiteSpace=wrap;connectable=0;strokeColor=#FF0000;overflow=hidden;fillColor=#fff2cc;top=0;left=0;bottom=0;right=0;pointerEvents=1;fontSize=16;opacity=30;swimlaneLine=1;" vertex="1" parent="vAD4Pwc3ynfNv6WFpabd-37">
          <mxGeometry width="129" height="36" as="geometry">
            <mxRectangle width="129" height="36" as="alternateBounds" />
          </mxGeometry>
        </mxCell>
        <mxCell id="vAD4Pwc3ynfNv6WFpabd-39" value="" style="shape=tableRow;horizontal=0;startSize=0;swimlaneHead=0;swimlaneBody=0;strokeColor=#FF0000;top=0;left=0;bottom=0;right=0;collapsible=0;dropTarget=0;fillColor=#fff2cc;points=[[0,0.5],[1,0.5]];portConstraint=eastwest;fontSize=16;opacity=30;swimlaneLine=1;" vertex="1" parent="vAD4Pwc3ynfNv6WFpabd-34">
          <mxGeometry y="60" width="129" height="35" as="geometry" />
        </mxCell>
        <mxCell id="vAD4Pwc3ynfNv6WFpabd-40" value="UseComputer()" style="shape=partialRectangle;html=1;whiteSpace=wrap;connectable=0;strokeColor=#FF0000;overflow=hidden;fillColor=#fff2cc;top=0;left=0;bottom=0;right=0;pointerEvents=1;fontSize=16;opacity=30;swimlaneLine=1;" vertex="1" parent="vAD4Pwc3ynfNv6WFpabd-39">
          <mxGeometry width="129" height="35" as="geometry">
            <mxRectangle width="129" height="35" as="alternateBounds" />
          </mxGeometry>
        </mxCell>
      </root>
    </mxGraphModel>
  </diagram>
</mxfile>
